<svg width="20" height="21" viewBox="0 0 20 21" fill="none" xmlns="http://www.w3.org/2000/svg">
<path fill-rule="evenodd" clip-rule="evenodd" d="M10.2151 2.28836L8.62966 2.28836L8.62918 2.28885C8.51533 2.28856 8.40149 2.28778 8.28765 2.287C8.01261 2.2851 7.73765 2.28321 7.46292 2.28836C7.38333 2.28969 7.30396 2.30909 7.2245 2.3285C7.18818 2.33738 7.15182 2.34626 7.11544 2.35342L7.11539 2.35294C7.10402 2.35483 7.09244 2.3561 7.08088 2.35738C7.05672 2.36004 7.0326 2.3627 7.01046 2.37091C6.02904 2.7273 5.69451 3.61392 5.84613 4.60007H6.97196C6.97196 4.55819 6.97263 4.51707 6.97329 4.47651V4.47594C6.97472 4.38741 6.97612 4.30144 6.97051 4.216C6.95559 3.98439 6.98929 3.77075 7.15342 3.59401C7.15328 3.51185 7.15347 3.42973 7.15367 3.34764C7.15412 3.15829 7.15457 2.96909 7.15087 2.7799C7.15484 2.98205 7.15432 3.18444 7.15379 3.3867V3.38738C7.15361 3.45641 7.15343 3.52551 7.15343 3.5945C7.3089 3.47748 7.48217 3.43766 7.67615 3.443C7.89793 3.44877 8.11995 3.44577 8.34188 3.44278C8.43781 3.44149 8.53379 3.44019 8.62965 3.43961H10.2151V2.28836ZM7.12868 2.48478L7.12866 2.48465L7.12865 2.48452C7.12435 2.44438 7.12004 2.4042 7.11638 2.364C7.11992 2.40166 7.12396 2.43929 7.128 2.47691C7.13683 2.5591 7.14565 2.64123 7.14923 2.7235C7.14574 2.64392 7.13722 2.56447 7.12869 2.48496L7.12868 2.48478Z" fill="#E10D34"/>
<path d="M18.2134 4.08393C18.2148 7.53475 18.2143 10.9856 18.2124 14.4359C18.2124 14.568 18.2004 14.702 18.1773 14.8321C18.057 15.5166 17.4758 16.0943 16.8089 16.1993C16.7261 16.2035 16.6434 16.2081 16.5607 16.2127C16.3712 16.2232 16.1817 16.2337 15.992 16.2388C15.8485 16.2428 15.7046 16.2401 15.5609 16.2374L15.5608 16.2374C15.4964 16.2362 15.4321 16.235 15.3678 16.2344V16.2339H13.3756C13.4666 16.3201 13.5493 16.3986 13.6278 16.4733L13.6287 16.4741C13.7064 16.548 13.7802 16.618 13.854 16.6879L13.854 16.6884C14.2742 17.0656 14.6949 17.4429 15.1324 17.8352C15.0314 17.9486 14.9316 18.0606 14.8317 18.1728L14.8311 18.1734C14.6726 18.3514 14.5138 18.5297 14.3498 18.7136C14.163 18.5393 13.9888 18.3766 13.8145 18.214H13.815L13.815 18.2135C13.5866 18.0071 13.3584 17.8006 13.1301 17.5942C12.9018 17.3877 12.6736 17.1812 12.4452 16.9748C12.4494 16.9508 12.4548 16.9267 12.4601 16.9027C12.4717 16.8508 12.4833 16.7988 12.4837 16.7466C12.4863 16.3287 12.486 15.9111 12.4857 15.4933V15.4921C12.4857 15.3668 12.4856 15.2415 12.4856 15.1162H15.3678V15.1166C15.4607 15.1159 15.5536 15.1158 15.6465 15.1158H15.6469C15.8702 15.1156 16.0937 15.1154 16.3169 15.1064C16.4213 15.1025 16.5251 15.0832 16.6287 15.064C16.6764 15.0552 16.7241 15.0464 16.7718 15.039L16.7723 15.039C16.9826 14.8845 17.0649 14.6796 17.0644 14.415C17.0596 10.9909 17.0587 7.56728 17.0649 4.14317C17.0654 3.80183 16.9345 3.57799 16.6264 3.45271L16.6264 3.45174L16.6261 3.45174C16.0628 3.44737 15.4994 3.443 14.936 3.43912V2.28788L16.6298 2.2937L16.6293 2.29419L16.6293 2.2952C17.5499 2.37456 18.2134 3.11979 18.2134 4.08393Z" fill="#E10D34"/>
<path d="M12.4856 15.1162H12.4851L12.4856 15.1157V15.1162Z" fill="#E10D34"/>
<path d="M7.18903 6.74718C7.44093 6.85642 7.69283 6.96565 7.94472 7.075V7.07639C8.09974 7.14394 8.25486 7.21149 8.41434 7.28094L8.41998 7.28339C8.59002 7.35744 8.76505 7.43366 8.95022 7.51436C8.52232 7.70566 8.12523 7.88337 7.72813 8.06108C7.72813 8.06076 7.72813 8.06044 7.72813 8.06012C7.64346 8.09538 7.55811 8.12919 7.47277 8.16299C7.27966 8.23949 7.08662 8.31595 6.90169 8.40923C6.60197 8.56064 6.31332 8.66501 5.99967 8.46197C5.99967 8.46187 5.99967 8.46177 5.99967 8.46167C5.82092 8.38401 5.64222 8.30641 5.46357 8.22884C5.14963 8.09251 4.83581 7.95624 4.52199 7.81977L4.52202 8.50459C4.52209 9.64605 4.52215 10.7875 4.52055 11.929C4.52055 11.9762 4.50936 12.0231 4.49814 12.0701C4.49311 12.0912 4.48808 12.1123 4.48405 12.1334C4.96473 12.3582 5.47907 12.414 5.99871 12.4422V12.4427L5.99823 12.4432C6.59556 12.4869 7.18663 12.4505 7.76904 12.3034L7.76471 11.1181C7.1863 11.2798 6.59539 11.3104 5.99967 11.2949V11.2944C5.88951 11.2696 5.77928 11.2452 5.66905 11.2208L5.66859 11.2207L5.6672 11.2204C5.38939 11.1589 5.1116 11.0974 4.83534 11.0298C4.70393 10.9977 4.65965 10.9001 4.66254 10.7554C4.66952 10.3735 4.6684 9.99158 4.66726 9.60079V9.60014C4.66683 9.45207 4.66639 9.30273 4.66639 9.15164C5.09319 9.32686 5.50556 9.49627 5.91792 9.66567C5.9179 9.66572 5.91788 9.66578 5.91786 9.66584C5.95368 9.68263 5.98927 9.70124 6.02492 9.71988C6.18617 9.8042 6.34882 9.88926 6.54118 9.81053C6.83853 9.68865 7.13355 9.56086 7.42852 9.4331C7.55646 9.37768 7.68439 9.32227 7.81249 9.26735C7.81261 9.26762 7.81272 9.2679 7.81284 9.26817C7.85207 9.25418 7.89122 9.24027 7.93223 9.2257C7.99084 9.20488 8.05331 9.18268 8.12522 9.15698V9.57115C8.12522 9.68155 8.12397 9.79199 8.12272 9.90243C8.11973 10.1674 8.11673 10.4324 8.131 10.6967C8.14255 10.9064 8.06072 11.0103 7.87974 11.0681C7.85275 11.0767 7.82687 11.0892 7.80105 11.1017C7.78912 11.1075 7.7772 11.1132 7.76519 11.1186L7.76952 12.3038C8.12522 12.2295 8.46023 12.1038 8.75817 11.8901C9.10424 11.642 9.28619 11.3119 9.28041 10.8734C9.27632 10.5345 9.27692 10.1956 9.27752 9.85658V9.85639C9.27812 9.51736 9.27873 9.17833 9.27463 8.83943C9.27319 8.70833 9.30063 8.62093 9.42433 8.57529L9.42385 8.57577C9.54813 8.52146 9.67272 8.4678 9.79733 8.41413C10.1061 8.28114 10.4149 8.14812 10.7191 8.00525C10.9121 7.91494 11.0055 7.73382 11.0055 7.51775C11.0055 7.29391 10.9059 7.11183 10.7052 7.02006C10.4082 6.88376 10.107 6.75655 9.80592 6.62936C9.67796 6.57531 9.55001 6.52127 9.42241 6.46653C9.42335 7.14687 9.42381 7.82676 9.42426 8.50706L9.42433 8.56904L9.42433 8.57529C9.42337 7.87221 9.42289 7.16961 9.42241 6.46653C9.31737 6.42032 9.21235 6.37408 9.10734 6.32785L9.10683 6.32762L9.1058 6.32717C8.74795 6.16961 8.39018 6.01208 8.03184 5.85571C8.01484 5.84845 7.99427 5.84927 7.97378 5.85007C7.96428 5.85045 7.95479 5.85082 7.94568 5.85039C7.80884 5.78947 7.67205 5.7284 7.53525 5.66735L7.53502 5.66725C7.20417 5.51959 6.87327 5.37192 6.54165 5.22595C6.52078 5.21707 6.49571 5.21755 6.47064 5.21802C6.45871 5.21825 6.44677 5.21848 6.43528 5.2177L6.43528 5.21721C6.41165 5.21874 6.38715 5.21829 6.36263 5.21784H6.36251C6.30916 5.21687 6.25565 5.21589 6.2105 5.23518C5.83366 5.39555 5.45907 5.56075 5.08436 5.726C4.96898 5.77689 4.85359 5.82778 4.73812 5.87853V7.11426C4.91527 7.03946 5.09236 6.96453 5.26943 6.88962L5.27132 6.88882C5.59591 6.75149 5.92043 6.61419 6.24516 6.4777C6.28673 6.46026 6.33015 6.44791 6.37365 6.43554C6.3931 6.43001 6.41257 6.42447 6.4319 6.41847L6.4319 6.41895H6.43238C6.6846 6.52844 6.93682 6.63781 7.18903 6.74718Z" fill="#E10D34"/>
<path d="M3.22433 6.53305H3.22385L3.22385 6.53326C3.11464 6.57948 3.00516 6.62501 2.89569 6.67053L2.89547 6.67062L2.89534 6.67067L2.8941 6.67119C2.62359 6.78368 2.3532 6.89612 2.08744 7.01861C1.88672 7.11086 1.78564 7.29246 1.78564 7.51678C1.78564 7.74159 1.88817 7.92125 2.0884 8.01496C2.35363 8.13924 2.62299 8.25444 2.89234 8.36964C3.00163 8.41638 3.111 8.46315 3.22 8.5105L3.22 8.51071C3.22815 8.51543 3.23612 8.52087 3.24405 8.52629C3.26142 8.53815 3.27866 8.54992 3.29749 8.55392C3.48521 8.59471 3.52035 8.71415 3.51698 8.89575C3.50864 9.35864 3.51008 9.82153 3.51153 10.2844C3.51209 10.4625 3.51265 10.6405 3.51265 10.8185C3.51313 11.4614 3.86883 11.9436 4.48349 12.1344C4.48754 12.1122 4.49281 12.0901 4.49809 12.068L4.49811 12.0679L4.49813 12.0677C4.5091 12.0217 4.52007 11.9757 4.52007 11.9295C4.52167 10.788 4.5216 9.64654 4.52154 8.50507L4.52151 7.82025C4.30684 7.7246 4.09217 7.62895 3.84428 7.51824C4.04804 7.4261 4.23783 7.34041 4.42241 7.25708C4.52866 7.20912 4.63317 7.16193 4.73763 7.11475V5.87853C4.23334 6.09696 3.72906 6.31491 3.22478 6.53286L3.22433 6.53305Z" fill="#E10D34"/>
<path d="M5.84179 14.7389C5.94143 15.6507 6.72263 16.3014 7.58468 16.2645L9.45851 16.2645V15.1162L7.58468 15.1162C7.15727 15.0623 6.97243 14.8525 6.97243 14.4199V13.0831H5.83072C5.83072 13.2566 5.82608 13.4297 5.82145 13.6022C5.81118 13.985 5.80098 14.3647 5.84179 14.7389Z" fill="#E10D34"/>
<path d="M9.45851 15.1162L9.45947 15.1166V16.265H10.4115L10.4674 16.3524L9.85512 16.8942C9.85881 16.9714 9.86286 17.0486 9.8669 17.1258L9.86696 17.1264L9.86697 17.1266V17.1268C9.87612 17.3008 9.88526 17.4748 9.89026 17.6488C9.89297 17.7421 9.89239 17.8356 9.89182 17.9291C9.89116 18.0346 9.89051 18.1402 9.89459 18.2455C9.89591 18.278 9.91648 18.3095 9.93706 18.3411C9.94665 18.3558 9.95625 18.3706 9.9639 18.3854C9.98923 18.3613 10.0148 18.3375 10.0403 18.3136C10.0974 18.2603 10.1545 18.207 10.2094 18.1513C10.4217 17.9354 10.6331 17.7184 10.8443 17.5014L10.8468 17.4989C10.9249 17.4187 11.0029 17.3385 11.0811 17.2584L11.0808 17.2577L11.1065 17.2326C11.3615 16.9828 11.617 16.7326 11.8733 16.482L11.8798 16.4876C12.0767 16.6579 12.2604 16.8168 12.4442 16.9753C12.4485 16.9512 12.4539 16.9271 12.4593 16.903C12.471 16.851 12.4827 16.7992 12.4827 16.7471C12.4853 16.3288 12.485 15.9108 12.4848 15.4926C12.4847 15.3672 12.4846 15.2417 12.4846 15.1162H9.45851Z" fill="#E10D34"/>
<path d="M11.7646 3.43961V2.28836H14.9355V3.43961H11.7646Z" fill="#E10D34"/>
<path d="M11.7646 2.28836V3.43961H10.2151V2.28836H11.7646Z" fill="#E10D34"/>
<path d="M11.8854 12.163H15.8958V11.0118H11.8854V12.163Z" fill="#E10D34"/>
<path d="M15.8958 8.68551H11.8849V9.83675H15.8958V8.68551Z" fill="#E10D34"/>
<path d="M11.8854 7.51047V6.35923H15.8958V7.51047H11.8854Z" fill="#E10D34"/>
<path d="M9.86648 17.1259C9.87563 17.3 9.88478 17.4742 9.88978 17.6483C9.89249 17.7418 9.89191 17.8353 9.89133 17.9288C9.89068 18.0343 9.89003 18.1398 9.89411 18.245C9.89542 18.2775 9.91599 18.3091 9.93658 18.3406C9.94617 18.3553 9.95577 18.3701 9.96342 18.3849C9.86571 18.4893 9.76752 18.5942 9.68184 18.6854C9.41182 18.4135 9.15094 18.1509 8.90209 17.9008C9.20725 17.5779 9.53071 17.2356 9.85416 16.8933L9.85464 16.8938C9.85834 16.9711 9.86241 17.0486 9.86648 17.1259Z" fill="#E10D34"/>
</svg>
