<svg width="22" height="22" viewBox="0 0 22 22" fill="none" xmlns="http://www.w3.org/2000/svg">
<path d="M10.9967 5.49964C11.2051 5.49964 11.405 5.58243 11.5524 5.72979C11.6998 5.87715 11.7826 6.07701 11.7826 6.28541V11.7858C11.7826 11.9942 11.6998 12.194 11.5524 12.3414C11.405 12.4887 11.2051 12.5715 10.9967 12.5715C10.7882 12.5715 10.5883 12.4887 10.4409 12.3414C10.2935 12.194 10.2107 11.9942 10.2107 11.7858V6.28541C10.2107 6.07701 10.2935 5.87715 10.4409 5.72979C10.5883 5.58243 10.7882 5.49964 10.9967 5.49964ZM9.81775 15.3217C9.81775 15.5548 9.8869 15.7827 10.0164 15.9765C10.146 16.1704 10.3301 16.3214 10.5455 16.4106C10.7609 16.4998 10.998 16.5232 11.2267 16.4777C11.4554 16.4322 11.6654 16.32 11.8303 16.1551C11.9952 15.9903 12.1075 15.7803 12.153 15.5517C12.1984 15.323 12.1751 15.086 12.0859 14.8707C11.9966 14.6553 11.8455 14.4712 11.6517 14.3417C11.4578 14.2122 11.2298 14.1431 10.9967 14.1431C10.684 14.1431 10.3841 14.2672 10.1631 14.4883C9.94196 14.7093 9.81775 15.0091 9.81775 15.3217ZM22 11C22.0006 11.2058 21.9603 11.4097 21.8815 11.5999C21.8028 11.7901 21.6871 11.9627 21.5412 12.1079L12.1049 21.543C11.8104 21.8357 11.412 22 10.9967 22C10.5814 22 10.183 21.8357 9.88849 21.543L0.457097 12.1079C0.164329 11.8135 0 11.4152 0 11C0 10.5848 0.164329 10.1865 0.457097 9.89207L9.8934 0.45699C10.1879 0.164291 10.5863 0 11.0016 0C11.4169 0 11.8153 0.164291 12.1098 0.45699L21.5461 9.89207C21.6911 10.0377 21.8059 10.2105 21.8838 10.4007C21.9617 10.5908 22.0012 10.7945 22 11ZM20.4281 11L10.9967 1.57081L1.56529 11L10.9967 20.4292L20.4281 11Z" fill="#EEA4B1"/>
</svg>
