<svg width="23" height="24" viewBox="0 0 23 24" fill="none" xmlns="http://www.w3.org/2000/svg">
<path d="M16.5313 3.375H6.46875C5.70625 3.375 4.97499 3.6779 4.43582 4.21707C3.89665 4.75624 3.59375 5.4875 3.59375 6.25V19.1875C3.59375 19.5688 3.7452 19.9344 4.01478 20.204C4.28437 20.4736 4.65 20.625 5.03125 20.625H7.1875C7.56875 20.625 7.93438 20.4736 8.20397 20.204C8.47355 19.9344 8.625 19.5688 8.625 19.1875V17.75H14.375V19.1875C14.375 19.5688 14.5265 19.9344 14.796 20.204C15.0656 20.4736 15.4313 20.625 15.8125 20.625H17.9688C18.35 20.625 18.7156 20.4736 18.9852 20.204C19.2548 19.9344 19.4063 19.5688 19.4063 19.1875V6.25C19.4063 5.4875 19.1033 4.75624 18.5642 4.21707C18.025 3.6779 17.2937 3.375 16.5313 3.375ZM5.03125 16.3125V11.2813H17.9688V16.3125H5.03125ZM5.03125 7.6875H17.9688V9.84375H5.03125V7.6875ZM6.46875 4.8125H16.5313C16.9125 4.8125 17.2781 4.96395 17.5477 5.23353C17.8173 5.50312 17.9688 5.86875 17.9688 6.25H5.03125C5.03125 5.86875 5.1827 5.50312 5.45228 5.23353C5.72187 4.96395 6.0875 4.8125 6.46875 4.8125ZM7.1875 19.1875H5.03125V17.75H7.1875V19.1875ZM15.8125 19.1875V17.75H17.9688V19.1875H15.8125ZM9.34375 13.7969C9.34375 14.0101 9.28052 14.2186 9.16205 14.3959C9.04359 14.5731 8.87521 14.7113 8.67821 14.7929C8.4812 14.8745 8.26443 14.8959 8.05529 14.8543C7.84616 14.8127 7.65405 14.71 7.50328 14.5592C7.3525 14.4084 7.24982 14.2163 7.20822 14.0072C7.16662 13.7981 7.18797 13.5813 7.26957 13.3843C7.35117 13.1873 7.48936 13.0189 7.66665 12.9004C7.84395 12.782 8.05239 12.7188 8.26563 12.7188C8.55156 12.7188 8.82579 12.8323 9.02798 13.0345C9.23016 13.2367 9.34375 13.5109 9.34375 13.7969ZM15.8125 13.7969C15.8125 14.0101 15.7493 14.2186 15.6308 14.3959C15.5123 14.5731 15.344 14.7113 15.147 14.7929C14.95 14.8745 14.7332 14.8959 14.524 14.8543C14.3149 14.8127 14.1228 14.71 13.972 14.5592C13.8212 14.4084 13.7186 14.2163 13.677 14.0072C13.6354 13.7981 13.6567 13.5813 13.7383 13.3843C13.8199 13.1873 13.9581 13.0189 14.1354 12.9004C14.3127 12.782 14.5211 12.7188 14.7344 12.7188C15.0203 12.7188 15.2945 12.8323 15.4967 13.0345C15.6989 13.2367 15.8125 13.5109 15.8125 13.7969ZM22.2813 7.6875V9.84375C22.2813 10.0344 22.2055 10.2172 22.0707 10.352C21.9359 10.4868 21.7531 10.5625 21.5625 10.5625C21.3719 10.5625 21.1891 10.4868 21.0543 10.352C20.9195 10.2172 20.8438 10.0344 20.8438 9.84375V7.6875C20.8438 7.49688 20.9195 7.31406 21.0543 7.17927C21.1891 7.04448 21.3719 6.96875 21.5625 6.96875C21.7531 6.96875 21.9359 7.04448 22.0707 7.17927C22.2055 7.31406 22.2813 7.49688 22.2813 7.6875ZM2.15625 7.6875V9.84375C2.15625 10.0344 2.08052 10.2172 1.94573 10.352C1.81094 10.4868 1.62812 10.5625 1.4375 10.5625C1.24688 10.5625 1.06406 10.4868 0.929267 10.352C0.794475 10.2172 0.71875 10.0344 0.71875 9.84375V7.6875C0.71875 7.49688 0.794475 7.31406 0.929267 7.17927C1.06406 7.04448 1.24688 6.96875 1.4375 6.96875C1.62812 6.96875 1.81094 7.04448 1.94573 7.17927C2.08052 7.31406 2.15625 7.49688 2.15625 7.6875Z" fill="#42434B"/>
</svg>
