<svg width="28" height="22" viewBox="0 0 28 22" fill="none" xmlns="http://www.w3.org/2000/svg">
<path d="M20.125 0.5H7.875C6.94674 0.5 6.0565 0.868749 5.40013 1.52513C4.74375 2.1815 4.375 3.07174 4.375 4V19.75C4.375 20.2141 4.55937 20.6592 4.88756 20.9874C5.21575 21.3156 5.66087 21.5 6.125 21.5H8.75C9.21413 21.5 9.65925 21.3156 9.98744 20.9874C10.3156 20.6592 10.5 20.2141 10.5 19.75V18H17.5V19.75C17.5 20.2141 17.6844 20.6592 18.0126 20.9874C18.3408 21.3156 18.7859 21.5 19.25 21.5H21.875C22.3391 21.5 22.7842 21.3156 23.1124 20.9874C23.4406 20.6592 23.625 20.2141 23.625 19.75V4C23.625 3.07174 23.2563 2.1815 22.5999 1.52513C21.9435 0.868749 21.0533 0.5 20.125 0.5ZM6.125 16.25V10.125H21.875V16.25H6.125ZM6.125 5.75H21.875V8.375H6.125V5.75ZM7.875 2.25H20.125C20.5891 2.25 21.0342 2.43437 21.3624 2.76256C21.6906 3.09075 21.875 3.53587 21.875 4H6.125C6.125 3.53587 6.30937 3.09075 6.63756 2.76256C6.96575 2.43437 7.41087 2.25 7.875 2.25ZM8.75 19.75H6.125V18H8.75V19.75ZM19.25 19.75V18H21.875V19.75H19.25ZM11.375 13.1875C11.375 13.4471 11.298 13.7008 11.1538 13.9167C11.0096 14.1325 10.8046 14.3008 10.5648 14.4001C10.3249 14.4994 10.061 14.5254 9.80644 14.4748C9.55184 14.4241 9.31798 14.2991 9.13442 14.1156C8.95087 13.932 8.82586 13.6982 8.77522 13.4436C8.72458 13.189 8.75057 12.9251 8.84991 12.6852C8.94925 12.4454 9.11747 12.2404 9.33331 12.0962C9.54915 11.952 9.80291 11.875 10.0625 11.875C10.4106 11.875 10.7444 12.0133 10.9906 12.2594C11.2367 12.5056 11.375 12.8394 11.375 13.1875ZM19.25 13.1875C19.25 13.4471 19.173 13.7008 19.0288 13.9167C18.8846 14.1325 18.6796 14.3008 18.4398 14.4001C18.1999 14.4994 17.936 14.5254 17.6814 14.4748C17.4268 14.4241 17.193 14.2991 17.0094 14.1156C16.8259 13.932 16.7009 13.6982 16.6502 13.4436C16.5996 13.189 16.6256 12.9251 16.7249 12.6852C16.8242 12.4454 16.9925 12.2404 17.2083 12.0962C17.4242 11.952 17.6779 11.875 17.9375 11.875C18.2856 11.875 18.6194 12.0133 18.8656 12.2594C19.1117 12.5056 19.25 12.8394 19.25 13.1875ZM27.125 5.75V8.375C27.125 8.60706 27.0328 8.82962 26.8687 8.99372C26.7046 9.15781 26.4821 9.25 26.25 9.25C26.0179 9.25 25.7954 9.15781 25.6313 8.99372C25.4672 8.82962 25.375 8.60706 25.375 8.375V5.75C25.375 5.51794 25.4672 5.29538 25.6313 5.13128C25.7954 4.96719 26.0179 4.875 26.25 4.875C26.4821 4.875 26.7046 4.96719 26.8687 5.13128C27.0328 5.29538 27.125 5.51794 27.125 5.75ZM2.625 5.75V8.375C2.625 8.60706 2.53281 8.82962 2.36872 8.99372C2.20462 9.15781 1.98206 9.25 1.75 9.25C1.51794 9.25 1.29538 9.15781 1.13128 8.99372C0.967187 8.82962 0.875 8.60706 0.875 8.375V5.75C0.875 5.51794 0.967187 5.29538 1.13128 5.13128C1.29538 4.96719 1.51794 4.875 1.75 4.875C1.98206 4.875 2.20462 4.96719 2.36872 5.13128C2.53281 5.29538 2.625 5.51794 2.625 5.75Z" fill="white"/>
</svg>
