<svg width="17" height="17" viewBox="0 0 17 17" fill="none" xmlns="http://www.w3.org/2000/svg">
<path d="M7.2675 4.46249H8.8825V6.07749H7.2675V4.46249ZM7.2675 7.69249H8.8825V12.5375H7.2675V7.69249ZM8.075 0.424988C3.6176 0.424988 0 4.04259 0 8.49999C0 12.9574 3.6176 16.575 8.075 16.575C12.5324 16.575 16.15 12.9574 16.15 8.49999C16.15 4.04259 12.5324 0.424988 8.075 0.424988ZM8.075 14.96C4.51393 14.96 1.615 12.0611 1.615 8.49999C1.615 4.93891 4.51393 2.03999 8.075 2.03999C11.6361 2.03999 14.535 4.93891 14.535 8.49999C14.535 12.0611 11.6361 14.96 8.075 14.96Z" fill="white"/>
</svg>
