<svg width="28" height="28" viewBox="0 0 28 28" fill="none" xmlns="http://www.w3.org/2000/svg">
<path d="M27.125 14C27.1259 12.9951 26.8796 12.0055 26.4078 11.1183C25.9359 10.2311 25.2531 9.47363 24.4194 8.91265C23.5857 8.35167 22.6268 8.00443 21.6272 7.90153C20.6276 7.79863 19.6181 7.94324 18.6876 8.32261C17.7571 8.70198 16.9342 9.30446 16.2916 10.0769C15.6489 10.8494 15.2061 11.7681 15.0023 12.7521C14.7985 13.736 14.8399 14.755 15.1229 15.7192C15.4059 16.6834 15.9217 17.5632 16.625 18.2809V24.5C16.6249 24.6492 16.663 24.796 16.7356 24.9264C16.8082 25.0567 16.9129 25.1664 17.0398 25.2449C17.1668 25.3233 17.3116 25.368 17.4607 25.3747C17.6098 25.3814 17.7581 25.3499 17.8916 25.2831L21 23.7278L24.1084 25.2831C24.2419 25.3499 24.3902 25.3814 24.5393 25.3747C24.6884 25.368 24.8332 25.3233 24.9602 25.2449C25.0871 25.1664 25.1918 25.0567 25.2644 24.9264C25.337 24.796 25.3751 24.6492 25.375 24.5V18.2809C26.4972 17.1387 27.1257 15.6013 27.125 14ZM21 9.625C21.8653 9.625 22.7112 9.88159 23.4306 10.3623C24.1501 10.8431 24.7108 11.5263 25.042 12.3258C25.3731 13.1252 25.4597 14.0049 25.2909 14.8535C25.1221 15.7022 24.7054 16.4817 24.0936 17.0936C23.4817 17.7054 22.7022 18.1221 21.8535 18.2909C21.0049 18.4597 20.1252 18.3731 19.3258 18.042C18.5263 17.7108 17.8431 17.1501 17.3623 16.4306C16.8816 15.7112 16.625 14.8653 16.625 14C16.625 12.8397 17.0859 11.7269 17.9064 10.9064C18.7269 10.0859 19.8397 9.625 21 9.625ZM21.3916 21.9669C21.27 21.906 21.1359 21.8744 21 21.8744C20.8641 21.8744 20.73 21.906 20.6084 21.9669L18.375 23.0847V19.5333C19.1952 19.9229 20.0919 20.125 21 20.125C21.9081 20.125 22.8048 19.9229 23.625 19.5333V23.0847L21.3916 21.9669ZM14.875 21C14.875 21.2321 14.7828 21.4546 14.6187 21.6187C14.4546 21.7828 14.2321 21.875 14 21.875H4.375C3.91087 21.875 3.46575 21.6906 3.13756 21.3624C2.80937 21.0342 2.625 20.5891 2.625 20.125V6.125C2.625 5.66087 2.80937 5.21575 3.13756 4.88756C3.46575 4.55937 3.91087 4.375 4.375 4.375H23.625C24.0891 4.375 24.5342 4.55937 24.8624 4.88756C25.1906 5.21575 25.375 5.66087 25.375 6.125C25.375 6.35706 25.2828 6.57962 25.1187 6.74372C24.9546 6.90781 24.7321 7 24.5 7C24.2679 7 24.0454 6.90781 23.8813 6.74372C23.7172 6.57962 23.625 6.35706 23.625 6.125H4.375V20.125H14C14.2321 20.125 14.4546 20.2172 14.6187 20.3813C14.7828 20.5454 14.875 20.7679 14.875 21ZM13.125 14.875C13.125 15.1071 13.0328 15.3296 12.8687 15.4937C12.7046 15.6578 12.4821 15.75 12.25 15.75H7.875C7.64294 15.75 7.42038 15.6578 7.25628 15.4937C7.09219 15.3296 7 15.1071 7 14.875C7 14.6429 7.09219 14.4204 7.25628 14.2563C7.42038 14.0922 7.64294 14 7.875 14H12.25C12.4821 14 12.7046 14.0922 12.8687 14.2563C13.0328 14.4204 13.125 14.6429 13.125 14.875ZM13.125 11.375C13.125 11.6071 13.0328 11.8296 12.8687 11.9937C12.7046 12.1578 12.4821 12.25 12.25 12.25H7.875C7.64294 12.25 7.42038 12.1578 7.25628 11.9937C7.09219 11.8296 7 11.6071 7 11.375C7 11.1429 7.09219 10.9204 7.25628 10.7563C7.42038 10.5922 7.64294 10.5 7.875 10.5H12.25C12.4821 10.5 12.7046 10.5922 12.8687 10.7563C13.0328 10.9204 13.125 11.1429 13.125 11.375Z" fill="#42434B"/>
</svg>
