<svg width="28" height="28" viewBox="0 0 28 28" fill="none" xmlns="http://www.w3.org/2000/svg">
<path d="M13.0988 23.8371C13.0514 24.0264 12.9422 24.1945 12.7884 24.3146C12.6346 24.4347 12.4451 24.4999 12.25 24.4999C12.1763 24.5003 12.1028 24.4915 12.0313 24.4737L8.53126 23.5987C8.43382 23.5742 8.34133 23.5331 8.25783 23.4773L5.63283 21.7273C5.43978 21.5985 5.3058 21.3983 5.26037 21.1707C5.21493 20.9431 5.26177 20.7068 5.39056 20.5138C5.51936 20.3207 5.71957 20.1867 5.94714 20.1413C6.17472 20.0959 6.41103 20.1427 6.60408 20.2715L9.1022 21.9373L12.4556 22.7762C12.5677 22.8034 12.6733 22.8524 12.7663 22.9205C12.8593 22.9886 12.938 23.0744 12.9977 23.173C13.0575 23.2716 13.0972 23.381 13.1145 23.495C13.1319 23.6089 13.1265 23.7252 13.0988 23.8371ZM27.6117 13.2868C27.5399 13.5049 27.4256 13.7066 27.2755 13.8802C27.1253 14.0539 26.9422 14.196 26.7367 14.2985L24.1467 15.5935L18.1224 21.619C18.0154 21.7258 17.8827 21.8031 17.737 21.8434C17.5913 21.8836 17.4377 21.8855 17.2911 21.8487L10.2911 20.0987C10.1847 20.072 10.0841 20.0256 9.9947 19.962L3.9222 15.6263L1.26658 14.2985C0.851539 14.0911 0.535888 13.7272 0.389033 13.2871C0.242177 12.8469 0.27614 12.3665 0.483453 11.9513L3.20142 6.5165C3.4089 6.10146 3.77271 5.78581 4.21287 5.63896C4.65303 5.4921 5.13349 5.52606 5.54861 5.73337L7.96142 6.9365L13.7583 5.28056C13.9156 5.23558 14.0823 5.23558 14.2395 5.28056L20.0364 6.9365L22.4492 5.73337C22.8644 5.52606 23.3448 5.4921 23.785 5.63896C24.2251 5.78581 24.5889 6.10146 24.7964 6.5165L27.5144 11.9513C27.6181 12.1565 27.68 12.3801 27.6967 12.6093C27.7135 12.8386 27.6846 13.0688 27.6117 13.2868ZM22.5608 14.7021L19.5847 8.74994H16.1044L11.375 13.3437C12.7597 14.2285 14.9308 14.4724 16.8788 12.5092C17.0309 12.3558 17.2344 12.2642 17.45 12.2518C17.6657 12.2395 17.8783 12.3074 18.0469 12.4424L21.8105 15.4579L22.5608 14.7021ZM2.04861 12.7334L3.98345 13.7013L6.70142 8.2665L4.76658 7.29853L2.04861 12.7334ZM20.5625 16.6971L17.5317 14.2701C15.3945 16.0201 12.681 16.2509 10.4322 14.817C10.211 14.6763 10.0242 14.4876 9.88571 14.2651C9.74719 14.0425 9.66044 13.7916 9.63188 13.531C9.60332 13.2704 9.63368 13.0067 9.72071 12.7594C9.80774 12.5121 9.94922 12.2876 10.1347 12.1023C10.1373 12.0991 10.1403 12.0962 10.1435 12.0935L15.05 7.33463L14 7.03494L8.48533 8.61103L5.49173 14.5971L10.873 18.4417L17.232 20.0309L20.5625 16.6971ZM25.9481 12.7334L23.2334 7.29853L21.2986 8.2665L24.0166 13.7013L25.9481 12.7334Z" fill="#42434B"/>
</svg>
