<svg width="28" height="28" viewBox="0 0 28 28" fill="none" xmlns="http://www.w3.org/2000/svg">
<path d="M25.375 22.75C25.375 22.9821 25.2828 23.2046 25.1187 23.3687C24.9546 23.5328 24.7321 23.625 24.5 23.625H3.5C3.26794 23.625 3.04538 23.5328 2.88128 23.3687C2.71719 23.2046 2.625 22.9821 2.625 22.75V5.25C2.625 5.01794 2.71719 4.79538 2.88128 4.63128C3.04538 4.46719 3.26794 4.375 3.5 4.375C3.73206 4.375 3.95462 4.46719 4.11872 4.63128C4.28281 4.79538 4.375 5.01794 4.375 5.25V15.5717L9.92359 10.7188C10.0746 10.5866 10.2664 10.5103 10.4669 10.5028C10.6675 10.4952 10.8645 10.5568 11.025 10.6772L17.4573 15.5017L23.9236 9.84375C24.0084 9.75982 24.1094 9.69412 24.2205 9.65068C24.3316 9.60724 24.4505 9.58698 24.5697 9.59114C24.6889 9.5953 24.806 9.62379 24.9138 9.67487C25.0216 9.72595 25.1179 9.79854 25.1966 9.88817C25.2753 9.9778 25.3349 10.0826 25.3716 10.1961C25.4084 10.3096 25.4215 10.4294 25.4103 10.5482C25.399 10.6669 25.3636 10.7821 25.3062 10.8867C25.2488 10.9913 25.1706 11.083 25.0764 11.1562L18.0764 17.2812C17.9254 17.4134 17.7336 17.4897 17.5331 17.4972C17.3325 17.5048 17.1355 17.4432 16.975 17.3228L10.5427 12.5005L4.375 17.897V21.875H24.5C24.7321 21.875 24.9546 21.9672 25.1187 22.1313C25.2828 22.2954 25.375 22.5179 25.375 22.75Z" fill="#42434B"/>
</svg>
