<svg width="22" height="22" viewBox="0 0 22 22" fill="none" xmlns="http://www.w3.org/2000/svg">
<path d="M21.3125 16.6595C21.3125 17.5773 20.955 18.4401 20.3053 19.0898L19.0902 20.3049C18.4413 20.9546 17.5777 21.3121 16.6598 21.3121C15.742 21.3121 14.8784 20.9546 14.2287 20.3049L11.917 17.9932C11.5809 17.6572 11.5809 17.1141 11.917 16.7781C12.253 16.4421 12.7961 16.4421 13.1321 16.7781L15.4438 19.0898C16.0935 19.7395 17.2253 19.7395 17.875 19.0898L19.0902 17.8746C19.415 17.5498 19.5938 17.1184 19.5938 16.6595C19.5938 16.2006 19.415 15.7692 19.0902 15.4443L17.4307 13.784L16.2147 14.9992C15.8787 15.3352 15.3355 15.3352 14.9995 14.9992C14.6635 14.6631 14.6635 14.12 14.9995 13.784L16.8231 11.9613C17.1591 11.6253 17.7023 11.6253 18.0383 11.9613L20.3053 14.2292C20.955 14.878 21.3125 15.7408 21.3125 16.6595ZM4.00641 10.0827C4.17398 10.2503 4.39398 10.3345 4.61398 10.3345C4.83398 10.3345 5.05398 10.2503 5.22156 10.0827C5.55758 9.74666 5.55758 9.20354 5.22156 8.86752L2.90984 6.5558C2.585 6.23096 2.40625 5.79955 2.40625 5.34064C2.40625 4.88174 2.585 4.45033 2.90984 4.12549L4.125 2.91033C4.77469 2.26064 5.90648 2.26064 6.55617 2.91033L8.21648 4.57064L7.00047 5.7858C6.66445 6.12182 6.66445 6.66494 7.00047 7.00096C7.33648 7.33697 7.87961 7.33697 8.21563 7.00096L10.0392 5.17822C10.2008 5.01666 10.291 4.79924 10.291 4.57064C10.291 4.34205 10.2008 4.12377 10.0392 3.96307L7.77133 1.69518C6.47281 0.394941 4.20836 0.394942 2.90984 1.69432L1.69469 2.90947C1.045 3.55916 0.6875 4.42197 0.6875 5.33979C0.6875 6.2576 1.045 7.12127 1.69469 7.7701L4.00641 10.0827ZM20.3887 6.07455L6.66016 19.8013C5.68734 20.7759 4.39227 21.3121 3.01469 21.3121H1.54688C1.0725 21.3121 0.6875 20.928 0.6875 20.4528V18.9849C0.6875 17.6074 1.22375 16.3131 2.19742 15.3395L15.9251 1.61096C17.1548 0.381192 19.1572 0.379473 20.3878 1.61096C21.6176 2.84158 21.6176 4.84393 20.3878 6.07369L20.3887 6.07455ZM15.9199 8.11213L13.8875 6.07971L3.41258 16.5546C2.76375 17.2043 2.40625 18.0671 2.40625 18.9849V19.5934H3.01469C3.93336 19.5934 4.79617 19.2359 5.445 18.5862L15.9208 8.11127L15.9199 8.11213ZM19.1727 2.82697C18.6123 2.26666 17.7014 2.26752 17.1402 2.82697L15.1027 4.86455L17.1351 6.89697L19.1727 4.85939C19.7321 4.29908 19.7321 3.38729 19.1727 2.82697Z" fill="#42434B"/>
</svg>
