<svg width="28" height="21" viewBox="0 0 28 21" fill="none" xmlns="http://www.w3.org/2000/svg">
<path d="M26.7724 12.0602C26.6805 12.1306 26.5759 12.1818 26.4646 12.2109C26.3533 12.24 26.2375 12.2465 26.1237 12.2299C26.01 12.2133 25.9006 12.174 25.8017 12.1142C25.7029 12.0544 25.6165 11.9754 25.5476 11.8815C25.0202 11.1576 24.3338 10.5703 23.5436 10.1669C22.7534 9.7634 21.8815 9.55503 20.9981 9.55853C20.826 9.55851 20.6578 9.50669 20.5144 9.40956C20.3711 9.31242 20.2589 9.17428 20.1921 9.0124C20.1466 8.90248 20.1232 8.78438 20.1232 8.66508C20.1232 8.54577 20.1466 8.42767 20.1921 8.31775C20.2589 8.15587 20.3711 8.01773 20.5144 7.9206C20.6578 7.82346 20.826 7.77164 20.9981 7.77163C21.489 7.77158 21.97 7.63095 22.3866 7.36571C22.8031 7.10047 23.1385 6.72125 23.3546 6.27113C23.5707 5.821 23.6588 5.31801 23.609 4.81929C23.5592 4.32058 23.3734 3.84612 23.0728 3.44982C22.7721 3.05351 22.3687 2.75125 21.9083 2.57736C21.4479 2.40346 20.9489 2.36491 20.4681 2.46609C19.9873 2.56726 19.544 2.80409 19.1884 3.14969C18.8328 3.49529 18.5792 3.93581 18.4565 4.42119C18.4277 4.53486 18.3774 4.64163 18.3083 4.73541C18.2391 4.8292 18.1526 4.90816 18.0536 4.96779C17.9546 5.02742 17.845 5.06656 17.7312 5.08295C17.6174 5.09935 17.5015 5.09269 17.3902 5.06336C17.2789 5.03403 17.1743 4.98259 17.0825 4.912C16.9907 4.8414 16.9133 4.75302 16.8549 4.65191C16.7965 4.5508 16.7582 4.43893 16.7422 4.32269C16.7261 4.20646 16.7326 4.08813 16.7614 3.97447C16.9317 3.30138 17.2535 2.67818 17.7012 2.15446C18.1489 1.63074 18.7101 1.22094 19.3402 0.957684C19.9702 0.694426 20.6518 0.584972 21.3306 0.63803C22.0094 0.691088 22.6666 0.905194 23.2501 1.26331C23.8336 1.62143 24.3272 2.11367 24.6917 2.70088C25.0561 3.28808 25.2813 3.95404 25.3493 4.64576C25.4173 5.33748 25.3264 6.03587 25.0836 6.68536C24.8408 7.33485 24.4529 7.91751 23.9509 8.38699C25.1405 8.913 26.1747 9.74773 26.9507 10.8082C27.0196 10.9023 27.0697 11.0094 27.098 11.1233C27.1264 11.2372 27.1325 11.3557 27.1159 11.472C27.0993 11.5883 27.0605 11.7001 27.0015 11.801C26.9426 11.902 26.8647 11.99 26.7724 12.0602ZM20.8799 18.9397C20.9433 19.0414 20.9858 19.1551 21.0049 19.274C21.0241 19.3929 21.0195 19.5146 20.9914 19.6316C20.9633 19.7487 20.9123 19.8587 20.8416 19.9551C20.7708 20.0515 20.6816 20.1323 20.5794 20.1926C20.4773 20.2529 20.3642 20.2915 20.2471 20.306C20.13 20.3205 20.0112 20.3107 19.8978 20.2771C19.7845 20.2435 19.679 20.1869 19.5877 20.1106C19.4963 20.0343 19.4211 19.94 19.3664 19.8332C18.8152 18.8802 18.0303 18.0904 17.089 17.5417C16.1478 16.9931 15.0827 16.7045 13.9989 16.7045C12.915 16.7045 11.8499 16.9931 10.9087 17.5417C9.9674 18.0904 9.18247 18.8802 8.63133 19.8332C8.57664 19.94 8.50136 20.0343 8.41002 20.1106C8.31869 20.1869 8.21319 20.2435 8.09986 20.2771C7.98654 20.3107 7.86773 20.3205 7.7506 20.306C7.63346 20.2915 7.52041 20.2529 7.41826 20.1926C7.3161 20.1323 7.22694 20.0515 7.15615 19.9551C7.08535 19.8587 7.03439 19.7487 7.00632 19.6316C6.97824 19.5146 6.97364 19.3929 6.99279 19.274C7.01194 19.1551 7.05445 19.0414 7.11775 18.9397C7.96597 17.4515 9.25928 16.2802 10.8076 15.5982C9.93639 14.917 9.29607 13.9741 8.9767 12.9021C8.65733 11.83 8.67497 10.6827 9.02713 9.62141C9.3793 8.56012 10.0483 7.6382 10.9401 6.98525C11.8318 6.3323 12.9015 5.98115 13.9989 5.98115C15.0962 5.98115 16.1659 6.3323 17.0576 6.98525C17.9494 7.6382 18.6184 8.56012 18.9706 9.62141C19.3227 10.6827 19.3404 11.83 19.021 12.9021C18.7016 13.9741 18.0613 14.917 17.1901 15.5982C18.7384 16.2802 20.0317 17.4515 20.8799 18.9397ZM13.9989 14.9192C14.691 14.9192 15.3676 14.7096 15.9431 14.3169C16.5186 13.9242 16.9672 13.3661 17.2321 12.7131C17.4969 12.06 17.5662 11.3415 17.4312 10.6482C17.2962 9.95496 16.9629 9.31817 16.4734 8.81837C15.984 8.31856 15.3604 7.97819 14.6816 7.8403C14.0027 7.7024 13.2991 7.77317 12.6596 8.04367C12.0201 8.31416 11.4736 8.77222 11.089 9.35993C10.7045 9.94764 10.4992 10.6386 10.4992 11.3454C10.4992 12.2933 10.868 13.2023 11.5243 13.8725C12.1806 14.5427 13.0707 14.9192 13.9989 14.9192ZM7.87454 8.66508C7.87454 8.42812 7.78236 8.20087 7.61829 8.03331C7.45421 7.86576 7.23168 7.77163 6.99964 7.77163C6.50874 7.77158 6.02769 7.63095 5.61114 7.36571C5.19458 7.10047 4.85921 6.72125 4.64313 6.27113C4.42704 5.821 4.3389 5.31801 4.38871 4.81929C4.43853 4.32058 4.6243 3.84612 4.92493 3.44982C5.22556 3.05351 5.629 2.75125 6.08941 2.57736C6.54983 2.40346 7.04878 2.36491 7.52958 2.46609C8.01037 2.56726 8.45375 2.80409 8.80935 3.14969C9.16494 3.49529 9.4185 3.93581 9.54123 4.42119C9.59924 4.65075 9.74417 4.84736 9.94414 4.96779C10.1441 5.08822 10.3827 5.1226 10.6075 5.06336C10.8323 5.00412 11.0248 4.85612 11.1428 4.65191C11.2607 4.44771 11.2944 4.20402 11.2364 3.97447C11.066 3.30138 10.7442 2.67818 10.2965 2.15446C9.84881 1.63074 9.2876 1.22094 8.65753 0.957684C8.02746 0.694426 7.34592 0.584972 6.66713 0.63803C5.98835 0.691088 5.33106 0.905194 4.74756 1.26331C4.16407 1.62143 3.67047 2.11367 3.30605 2.70088C2.94163 3.28808 2.71643 3.95404 2.64839 4.64576C2.58035 5.33748 2.67134 6.03587 2.91412 6.68536C3.15689 7.33485 3.54476 7.91751 4.04685 8.38699C2.85839 8.9135 1.82538 9.74819 1.05031 10.8082C0.910944 10.9978 0.851026 11.2361 0.883738 11.4708C0.916451 11.7055 1.03911 11.9173 1.22475 12.0596C1.41038 12.2019 1.64377 12.2631 1.87358 12.2297C2.10338 12.1963 2.31079 12.0711 2.45015 11.8815C2.97749 11.1576 3.66388 10.5703 4.45407 10.1669C5.24426 9.7634 6.11618 9.55503 6.99964 9.55853C7.23168 9.55853 7.45421 9.46439 7.61829 9.29684C7.78236 9.12929 7.87454 8.90203 7.87454 8.66508Z" fill="#42434B"/>
</svg>
