<svg width="160" height="40" viewBox="0 0 160 40" fill="none" xmlns="http://www.w3.org/2000/svg">
<path d="M90.1003 1.38478L70.0631 4.01003V9.96L90.1003 8.16593V1.38478Z" fill="#E4003A"/>
<path d="M28.8752 23.0499C28.8752 26.6608 29.948 27.9144 33.393 27.9144C36.8379 27.9144 37.8925 26.6608 37.8925 23.0499C37.8925 19.4391 36.8538 18.1855 33.393 18.1855C29.9321 18.1855 28.8752 19.4209 28.8752 23.0499ZM22.8221 22.9977C22.8221 16.3823 26.4848 13.3574 33.3952 13.3574C40.3056 13.3574 43.9864 16.3823 43.9864 22.9977C43.9864 29.6131 40.3419 32.7447 33.3952 32.7447C26.4486 32.7447 22.8221 29.6131 22.8221 22.9977Z" fill="#00274F"/>
<path d="M86.306 15.0175L70.0631 4.01004V9.95092L75.1274 13.3869L76.123 13.9706C74.3109 13.9933 73.4332 14.3634 72.5578 14.8926C70.0563 16.405 68.759 19.0666 68.759 22.9977C68.759 29.6131 72.4036 32.7447 79.3321 32.7447C86.2606 32.7447 89.9233 29.6131 89.9233 22.9977C89.9233 19.1711 88.685 16.5527 86.3083 15.0197L86.306 15.0175ZM79.3321 27.9144C75.8871 27.9144 74.8144 26.6608 74.8144 23.0499C74.8144 19.4391 75.8871 18.1855 79.3321 18.1855C82.7771 18.1855 83.8317 19.4209 83.8317 23.0499C83.8317 26.679 82.793 27.9144 79.3321 27.9144Z" fill="#00274F"/>
<path d="M12.3942 13.3233C9.12387 13.3233 6.46359 15.3468 5.80363 16.1847V13.7503H0V38.6152H5.76961V29.7743C6.44772 30.6327 9.08985 32.6198 12.3761 32.6198C17.8395 32.6198 20.8423 29.6494 20.8423 22.9614C20.8423 16.2733 17.8395 13.321 12.3942 13.321V13.3233ZM10.3281 27.8008C6.88316 27.8008 5.81043 26.5472 5.81043 22.9364C5.81043 19.3255 6.88316 18.0719 10.3281 18.0719C13.7731 18.0719 14.8277 19.3073 14.8277 22.9364C14.8277 26.5654 13.789 27.8008 10.3281 27.8008Z" fill="#00274F"/>
<path d="M129.621 13.7707V20.52H121.96V13.7707H116.154V32.0362H121.96V25.1937H129.621V32.0362H135.427V13.7707H129.621Z" fill="#00274F"/>
<path d="M91.9191 22.9636C91.9191 29.6517 94.9219 32.6221 100.385 32.6221C103.674 32.6221 106.316 30.635 106.992 29.7766V32.0362H112.761V13.7525H106.955V16.187C106.296 15.3468 103.638 13.3256 100.365 13.3256C94.9196 13.3256 91.9169 16.296 91.9169 22.9659L91.9191 22.9636ZM97.9314 22.9364C97.9314 19.3074 98.9701 18.0719 102.431 18.0719C105.876 18.0719 106.949 19.3074 106.949 22.9364C106.949 26.5472 105.876 27.8008 102.431 27.8008C98.9679 27.8008 97.9314 26.5472 97.9314 22.9364Z" fill="#00274F"/>
<path d="M60.8304 25.2868C60.3859 27.1967 59.1544 27.9143 56.5372 27.9143C53.0922 27.9143 52.0195 26.6608 52.0195 23.0499C52.0195 19.4391 53.0922 18.1855 56.5372 18.1855C59.1589 18.1855 60.3881 18.8963 60.8326 20.813L66.888 20.3543C65.9831 15.5761 62.4451 13.3551 56.5372 13.3551C49.6268 13.3551 45.9641 16.38 45.9641 22.9954C45.9641 29.6108 49.6087 32.7425 56.5372 32.7425C62.4338 32.7425 65.9423 30.4737 66.8699 25.7433L60.8304 25.2846V25.2868Z" fill="#00274F"/>
<path d="M160 32.0339L150.81 22.4436L159.506 13.7707H152.325L144.533 21.7055V13.7707H138.829V32.0339H144.533V25.6479V24.065V23.6245L152.536 32.0339H160Z" fill="#00274F"/>
</svg>
