<svg width="16" height="16" viewBox="0 0 16 16" fill="none" xmlns="http://www.w3.org/2000/svg">
<path d="M8 -0.000610352C6.41775 -0.000610352 4.87103 0.468581 3.55544 1.34763C2.23985 2.22668 1.21447 3.47611 0.608967 4.93792C0.00346628 6.39973 -0.15496 8.00826 0.153721 9.56011C0.462403 11.112 1.22433 12.5374 2.34315 13.6562C3.46197 14.7751 4.88743 15.537 6.43928 15.8457C7.99113 16.1543 9.59966 15.9959 11.0615 15.3904C12.5233 14.7849 13.7727 13.7595 14.6518 12.4439C15.5308 11.1284 16 9.58164 16 7.99939C15.9978 5.87834 15.1542 3.84481 13.6544 2.34501C12.1546 0.845203 10.121 0.00162951 8 -0.000610352ZM1.23077 7.99939C1.23154 6.66113 1.62897 5.35313 2.37284 4.24065C3.1167 3.12817 4.17362 2.26115 5.41006 1.74912C6.64649 1.2371 8.00695 1.10305 9.31954 1.36392C10.6321 1.62479 11.8379 2.26887 12.7846 3.21477L3.21539 12.784C2.58587 12.1564 2.08649 11.4107 1.74592 10.5896C1.40534 9.76854 1.23028 8.88829 1.23077 7.99939Z" fill="#42434B"/>
</svg>
